
        <svg xmlns="http://www.w3.org/2000/svg" xmlns:xlink="http://www.w3.org/1999/xlink" version="1.1" width="200" 
        height="100" viewBox="0 0 3197.123476693871 558.7922324201777">
			
			<g transform="scale(9.856173834693548) translate(10, 10)">
				<defs id="SvgjsDefs1226"></defs><g id="SvgjsG1227" featureKey="Df7oLJ-0" transform="matrix(0.6708343225788834,0,0,0.6708343225788834,-0.47876573696199937,-11.135848731197523)" fill="#ffffff"><g xmlns="http://www.w3.org/2000/svg"><path d="M80.6,43c1.3-3.9,0.6-9.3-2.8-12.5c-3.6-3.5-9.7-4.5-14.3-2.2c-3.6-6.8-12.3-11.7-21.1-11.7c-2.3,0-4.5,0.3-6.5,1   c-9.5,3-18.4,11.7-18.1,23.1c-1-0.2-2.1-0.3-3.2-0.3c-7.2,0-13,4.9-13.8,11.7c-0.4,3.3,0.6,6.3,2.8,8.7c3.3,3.6,9.2,5.8,16,5.8   h13.8v-3.2H19.7c-5.9,0-11-1.8-13.6-4.7c-1.6-1.7-2.2-3.8-2-6.2c0.6-5.1,5-8.9,10.6-8.9c1.5,0,3,0.3,4.4,0.8l2.5,1l-0.4-2.7   c-1.5-10.7,6.7-19.2,15.7-22c1.8-0.6,3.7-0.8,5.6-0.8c8.1,0,16.4,5,18.9,11.4l0.8,2l1.7-1.2c1.6-1.1,3.3-1.7,5.2-1.7   c2.4,0,4.9,1,6.6,2.6c2.8,2.7,3,7.8,1.4,10.5l-1.3,2.2l2.5,0.3c3.9,0.4,8.1,4.7,7.8,9.9c-0.3,4.4-4.2,7.8-9.2,7.8H75v3.2h1.7   c6.7,0,12-4.6,12.4-10.8C89.5,49.6,85.2,44.5,80.6,43z"></path><path d="M51,66.3l-15.3-7v6.9c1,1.8,8.1,4.7,15.3,5.1c7.3-0.3,14.3-3.3,15.3-5.1v-6.9L51,66.3z"></path><path d="M51,41.4L23.2,51.6L51,64.3l27.8-12.7L51,41.4z M51,51.7c-1.3,0-2.2-1.3-2.3-1.9l0.2-0.2c0,0,0.9,0.5,2.1,0.5   c1.3,0,2.1-0.5,2.1-0.5l0.2,0.2C53.2,50.4,52.3,51.7,51,51.7z"></path><rect x="68" y="54.6" width="1.3" height="15.5"></rect><rect x="72.3" y="53.2" width="1.3" height="15.5"></rect><rect x="70.2" y="53.8" width="1.3" height="17.1"></rect></g></g><g id="SvgjsG1228" featureKey="Ua4uQk-0" transform="matrix(1.4973276965609406,0,0,1.4973276965609406,77.80213827114014,-0.6246071609206467)" fill="#ffffff"><path d="M10.82 6 l0 2.96 l-3.4 0 l0 11.04 l-3.22 0 l0 -11.04 l-3.4 0 l0 -2.96 l10.02 0 z M19.020000000000003 9.44 c1.94 0 3.92 1.3 3.92 4.6 l0 5.96 l-3.16 0 l0 -5.74 c0 -1.58 -0.54 -2.08 -1.54 -2.08 c-1.42 0 -2.24 1.38 -2.44 1.98 l0 5.84 l-3.16 0 l0 -14.14 l3.16 0 l0 5.54 c0.2 -0.5 1.26 -1.96 3.22 -1.96 z M30.020000000000003 9.42 c2.36 0 5.66 1.78 5 6.48 l-7.26 0 c0.36 1.08 1.3 1.64 2.56 1.64 c1.28 0 1.68 -0.28 2.4 -0.58 l1.74 1.68 c-0.92 0.9 -2.16 1.56 -4.26 1.56 c-2.58 0 -5.66 -1.78 -5.66 -5.36 c0 -3.64 3.12 -5.42 5.48 -5.42 z M30.020000000000003 12.120000000000001 c-0.9 0 -1.82 0.52 -2.22 1.56 l4.42 0 c-0.32 -1.04 -1.3 -1.56 -2.2 -1.56 z M47.660000000000004 5.76 c2.52 0 4.06 1.56 4.82 2.88 l-2.36 1.42 c-0.78 -1 -1.46 -1.46 -2.46 -1.46 c-0.86 0 -1.5 0.5 -1.5 1.2 c0 0.72 0.4 1.08 1.4 1.42 l0.94 0.34 c3.26 1.14 4.38 2.58 4.38 4.44 c0 2.92 -2.76 4.3 -5.16 4.3 c-2.56 0 -4.52 -1.52 -5.22 -3.46 l2.46 -1.32 c0.5 0.9 1.24 1.88 2.76 1.88 c1.04 0 1.82 -0.42 1.82 -1.36 c0 -0.86 -0.48 -1.26 -1.98 -1.82 l-0.8 -0.28 c-2.06 -0.74 -3.8 -1.72 -3.8 -4.28 c0 -2.28 2.16 -3.9 4.7 -3.9 z M59.720000000000006 9.42 c1.9 0 3.5 0.8 4.48 2.48 l-2.4 1.14 c-0.52 -0.44 -0.94 -0.84 -2.04 -0.84 c-1.2 0 -2.42 0.92 -2.42 2.62 c0 1.68 1.22 2.56 2.42 2.56 c1.1 0 1.52 -0.36 2.04 -0.8 l2.44 1.14 c-1.02 1.68 -2.58 2.44 -4.52 2.44 c-2.32 0 -5.44 -1.66 -5.44 -5.34 c0 -3.62 3.12 -5.4 5.44 -5.4 z M72.24000000000001 9.44 c1.94 0 3.92 1.3 3.92 4.6 l0 5.96 l-3.16 0 l0 -5.74 c0 -1.58 -0.54 -2.08 -1.54 -2.08 c-1.42 0 -2.24 1.38 -2.44 1.98 l0 5.84 l-3.16 0 l0 -14.14 l3.16 0 l0 5.54 c0.2 -0.5 1.26 -1.96 3.22 -1.96 z M83.24000000000001 9.42 c2.36 0 5.48 1.78 5.48 5.42 c0 3.66 -3.12 5.36 -5.48 5.36 s-5.48 -1.7 -5.48 -5.36 c0 -3.64 3.12 -5.42 5.48 -5.42 z M83.24000000000001 12.2 c-1.2 0 -2.42 0.92 -2.42 2.64 c0 1.66 1.22 2.58 2.42 2.58 s2.44 -0.92 2.44 -2.58 c0 -1.72 -1.24 -2.64 -2.44 -2.64 z M95.6 9.42 c2.36 0 5.48 1.78 5.48 5.42 c0 3.66 -3.12 5.36 -5.48 5.36 s-5.48 -1.7 -5.48 -5.36 c0 -3.64 3.12 -5.42 5.48 -5.42 z M95.6 12.2 c-1.2 0 -2.42 0.92 -2.42 2.64 c0 1.66 1.22 2.58 2.42 2.58 s2.44 -0.92 2.44 -2.58 c0 -1.72 -1.24 -2.64 -2.44 -2.64 z M105.96000000000001 5.859999999999999 l0 14.14 l-3.16 0 l0 -14.14 l3.16 0 z M122.7 6 l3.22 0 l0 14 l-3.22 0 l0 -5.54 l-5.3 0 l0 5.54 l-3.22 0 l0 -14 l3.22 0 l0 5.5 l5.3 0 l0 -5.5 z M131.94 20.16 c-1.94 0 -3.92 -1.3 -3.92 -4.6 l0 -5.96 l3.16 0 l0 5.74 c0 1.58 0.54 2.08 1.54 2.08 c1.42 0 2.24 -1.38 2.44 -1.98 l0 -5.84 l3.16 0 l0 10.4 l-3.16 0 l0 -1.8 c-0.2 0.5 -1.26 1.96 -3.22 1.96 z M146.20000000000002 9.42 c2.38 0 5.12 1.78 5.12 5.36 c0 3.72 -2.74 5.42 -5.12 5.42 c-1.6 0 -2.54 -0.88 -2.68 -1.24 l0 1.04 l-3.16 0 l0 -10.4 l0 -3.74 l3.16 0 l0 4.7 c0.14 -0.22 1.08 -1.14 2.68 -1.14 z M145.74 17.42 c1.36 0 2.52 -0.92 2.52 -2.64 c0 -1.66 -1.16 -2.58 -2.52 -2.58 c-1.3 0 -2.36 0.9 -2.36 2.58 c0 1.74 1.06 2.64 2.36 2.64 z"></path></g>
			</g>
		</svg>
	